<svg width="16" height="16" viewBox="0 0 16 16" fill="none" xmlns="http://www.w3.org/2000/svg">
<g id="Add / Add">
<path id="Vector" fill-rule="evenodd" clip-rule="evenodd" d="M8.66102 2.66102V7.33898H13.339C13.5143 7.33898 13.6824 7.40862 13.8064 7.53259C13.9304 7.65655 14 7.82469 14 8C14 8.17531 13.9304 8.34344 13.8064 8.46741C13.6824 8.59137 13.5143 8.66102 13.339 8.66102H8.66102V13.339C8.66102 13.5143 8.59137 13.6824 8.46741 13.8064C8.34344 13.9304 8.17531 14 8 14C7.82469 14 7.65655 13.9304 7.53259 13.8064C7.40862 13.6824 7.33898 13.5143 7.33898 13.339V8.66102H2.66102C2.4857 8.66102 2.31757 8.59137 2.19361 8.46741C2.06964 8.34344 2 8.17531 2 8C2 7.82469 2.06964 7.65655 2.19361 7.53259C2.31757 7.40863 2.4857 7.33898 2.66102 7.33898H7.33898V2.66102C7.33898 2.4857 7.40863 2.31757 7.53259 2.19361C7.65655 2.06964 7.82469 2 8 2C8.17531 2 8.34344 2.06964 8.46741 2.19361C8.59137 2.31757 8.66102 2.4857 8.66102 2.66102Z" fill="#333333"/>
</g>
</svg>
