<svg width="16" height="16" viewBox="0 0 16 16" fill="none" xmlns="http://www.w3.org/2000/svg">
<path fill-rule="evenodd" clip-rule="evenodd" d="M6.99663 6.99665C6.90911 7.08416 6.79041 7.13333 6.66664 7.13333H1.99998C1.87621 7.13333 1.75751 7.08416 1.66999 6.99664C1.58248 6.90913 1.53331 6.79043 1.53331 6.66666V1.99999C1.53331 1.87623 1.58248 1.75753 1.66999 1.67001C1.75751 1.58249 1.87621 1.53333 1.99998 1.53333H6.66664C6.79041 1.53333 6.90911 1.58249 6.99663 1.67001C7.08414 1.75753 7.13331 1.87623 7.13331 1.99999V6.66666C7.13331 6.79043 7.08414 6.90913 6.99663 6.99665ZM2.46664 13.5333H6.19998V9.8H2.46664V13.5333ZM9.79998 13.5333H13.5333V9.8H9.79998V13.5333ZM2.46664 6.2H6.19998V2.46666H2.46664V6.2ZM1.99998 8.86666H6.66664C6.79041 8.86666 6.90911 8.91583 6.99663 9.00335C7.08414 9.09086 7.13331 9.20956 7.13331 9.33333V14C7.13331 14.1238 7.08414 14.2425 6.99663 14.33C6.90911 14.4175 6.79041 14.4667 6.66664 14.4667H1.99998C1.87621 14.4667 1.75751 14.4175 1.66999 14.33C1.58248 14.2425 1.53331 14.1238 1.53331 14V9.33333C1.53331 9.20956 1.58248 9.09086 1.66999 9.00335C1.75751 8.91583 1.87621 8.86666 1.99998 8.86666ZM9.33331 8.86666H14C14.1237 8.86666 14.2424 8.91583 14.33 9.00335C14.4175 9.09086 14.4666 9.20956 14.4666 9.33333V14C14.4666 14.1238 14.4175 14.2425 14.33 14.33C14.2424 14.4175 14.1237 14.4667 14 14.4667H9.33331C9.20954 14.4667 9.09084 14.4175 9.00333 14.33C8.91581 14.2425 8.86664 14.1238 8.86664 14V9.33333C8.86664 9.20956 8.91581 9.09086 9.00333 9.00335C9.09084 8.91583 9.20954 8.86666 9.33331 8.86666Z" fill="#F3ECFE"/>
<path fill-rule="evenodd" clip-rule="evenodd" d="M9.00336 6.99664C9.09087 7.08416 9.20957 7.13333 9.33334 7.13333H14C14.1238 7.13333 14.2425 7.08416 14.33 6.99664C14.4175 6.90912 14.4667 6.79043 14.4667 6.66666V1.99999C14.4667 1.87622 14.4175 1.75753 14.33 1.67001C14.2425 1.58249 14.1238 1.53333 14 1.53333H9.33334C9.20957 1.53333 9.09087 1.58249 9.00335 1.67001C8.91584 1.75753 8.86667 1.87622 8.86667 1.99999V6.66666C8.86667 6.79043 8.91584 6.90913 9.00336 6.99664ZM13.5333 6.19999H9.8V2.46666H13.5333V6.19999Z" fill="#F3ECFE"/>
</svg>
