<svg width="16" height="16" viewBox="0 0 16 16" fill="none" xmlns="http://www.w3.org/2000/svg">
<path fill-rule="evenodd" clip-rule="evenodd" d="M11.3779 1.63429C10.8877 1.53028 10.3792 1.52192 9.88101 1.6127C9.10708 1.75371 8.39451 2.12723 7.83826 2.68348C7.282 3.23974 6.90848 3.95231 6.76747 4.72623C6.62646 5.50015 6.72466 6.29867 7.04898 7.01537C7.14336 7.22393 7.09868 7.46915 6.9368 7.63103L1.84656 12.7213C1.65664 12.9112 1.54995 13.1688 1.54995 13.4373C1.54995 13.7059 1.65664 13.9635 1.84656 14.1534C2.03647 14.3433 2.29404 14.45 2.56262 14.45C2.8312 14.45 3.08877 14.3433 3.27869 14.1534L8.36894 9.06316C8.53081 8.90129 8.77603 8.85661 8.9846 8.95099C9.70129 9.27531 10.4998 9.3735 11.2737 9.23249C12.0477 9.09148 12.7602 8.71796 13.3165 8.16171C13.8727 7.60545 14.2463 6.89288 14.3873 6.11896C14.478 5.62072 14.4697 5.11229 14.3657 4.62206L12.2147 6.77304C11.9742 7.00879 11.6508 7.14082 11.314 7.14082C10.9772 7.14082 10.6539 7.00877 10.4134 6.77302L10.4101 6.76986L9.22763 5.58732C8.99189 5.34681 8.85915 5.02272 8.85915 4.68594C8.85915 4.34916 8.9912 4.0258 9.22695 3.78529L9.2308 3.78136L11.3779 1.63429ZM9.68383 0.530511C10.6777 0.349419 11.7032 0.47553 12.6236 0.892036C12.7881 0.966473 12.9056 1.1169 12.938 1.29453C12.9703 1.47216 12.9135 1.65436 12.7858 1.78203L10.0117 4.5561C9.97833 4.59085 9.95915 4.63771 9.95915 4.68594C9.95915 4.73418 9.97782 4.78052 10.0112 4.81527L11.1842 5.98824C11.2189 6.02164 11.2658 6.04082 11.314 6.04082C11.3623 6.04082 11.4086 6.02215 11.4433 5.98876L14.2179 3.21416C14.3456 3.08649 14.5278 3.02961 14.7054 3.06198C14.8831 3.09434 15.0335 3.21183 15.1079 3.37632C15.5244 4.29674 15.6505 5.32223 15.4695 6.31613C15.2884 7.31004 14.8087 8.22515 14.0943 8.93952C13.3799 9.65389 12.4648 10.1336 11.4709 10.3147C10.6041 10.4726 9.71328 10.3969 8.88907 10.0987L4.0565 14.9312C3.6603 15.3274 3.12294 15.55 2.56262 15.55C2.00231 15.55 1.46494 15.3274 1.06874 14.9312C0.672535 14.535 0.449951 13.9977 0.449951 13.4373C0.449951 12.877 0.672536 12.3397 1.06874 11.9435L5.90131 7.11089C5.60308 6.28669 5.52735 5.39586 5.68529 4.52905C5.86638 3.53515 6.34607 2.62003 7.06044 1.90567C7.77481 1.1913 8.68992 0.711603 9.68383 0.530511Z" fill="#333333"/>
</svg>
