<svg width="16" height="16" viewBox="0 0 16 16" fill="none" xmlns="http://www.w3.org/2000/svg">
<path fill-rule="evenodd" clip-rule="evenodd" d="M7.43405 11.5568C7.78241 11.3477 8.21759 11.3477 8.56595 11.5568L11.9 13.5572V3C11.9 2.50294 11.4971 2.1 11 2.1H5C4.50294 2.1 4.1 2.50294 4.1 3V13.5572L7.43405 11.5568ZM3.45435 15.2274C3.25439 15.3474 3 15.2033 3 14.9701V3C3 1.89543 3.89543 1 5 1H11C12.1046 1 13 1.89543 13 3V14.9701C13 15.2033 12.7456 15.3474 12.5457 15.2274L8 12.5L3.45435 15.2274Z" fill="#F3ECFE"/>
</svg>
