<svg width="16" height="16" viewBox="0 0 16 16" fill="none" xmlns="http://www.w3.org/2000/svg">
<g id="Arrow / With base / Down ">
<g id="Vector">
<path d="M12.8915 6.78097C12.8573 6.85026 12.8094 6.91097 12.7516 6.96055L8.42369 11.2884C8.31769 11.392 8.17537 11.45 8.02714 11.45C7.87876 11.45 7.73597 11.3914 7.6301 11.2879L7.62927 11.2871L3.31217 6.96924L3.30573 6.9638C3.24601 6.91335 3.19736 6.85111 3.16283 6.78097C3.1283 6.71082 3.10864 6.6343 3.10508 6.55621C3.10152 6.47811 3.11414 6.40012 3.14215 6.32713C3.17016 6.25414 3.21295 6.18772 3.26783 6.13205C3.32272 6.07638 3.38852 6.03265 3.46111 6.00361C3.53369 5.97457 3.6115 5.96085 3.68964 5.9633C3.76778 5.96575 3.84457 5.98432 3.91519 6.01786C3.98505 6.05102 4.04679 6.09818 4.0974 6.15567L7.45978 9.52441L7.45978 1.51585C7.45978 1.36537 7.51956 1.22106 7.62596 1.11466C7.73236 1.00826 7.87667 0.948486 8.02714 0.948486C8.17762 0.948486 8.32193 1.00826 8.42833 1.11466C8.53473 1.22106 8.5945 1.36537 8.5945 1.51585L8.5945 9.5181L11.9497 6.16343L11.9542 6.15815C12.0055 6.09915 12.0685 6.05139 12.1391 6.01786C12.2097 5.98433 12.2865 5.96575 12.3646 5.9633C12.4428 5.96085 12.5206 5.97458 12.5932 6.00362C12.6658 6.03265 12.7316 6.07638 12.7865 6.13205C12.8413 6.18773 12.8841 6.25414 12.9121 6.32713C12.9401 6.40012 12.9528 6.47811 12.9492 6.55621C12.9456 6.63431 12.926 6.71083 12.8915 6.78097Z" fill="#333333"/>
<path d="M12.1417 14.1003L3.91264 14.1003C3.5652 14.1003 3.28354 13.8186 3.28354 13.4712C3.28354 13.1237 3.5652 12.8421 3.91264 12.8421L12.1417 12.8421C12.4891 12.8421 12.7708 13.1237 12.7708 13.4712C12.7708 13.8186 12.4891 14.1003 12.1417 14.1003Z" fill="#333333"/>
</g>
</g>
</svg>
