<svg width="16" height="16" viewBox="0 0 16 16" fill="none" xmlns="http://www.w3.org/2000/svg">
<path d="M8.43229 2.2C5.98386 2.2 3.86395 3.61125 2.84396 5.66667H4.26667C4.59804 5.66667 4.86667 5.9353 4.86667 6.26667C4.86667 6.59804 4.59804 6.86667 4.26667 6.86667H1.76667C1.34325 6.86667 1 6.52342 1 6.1V3.6C1 3.26863 1.26863 3 1.6 3C1.93137 3 2.2 3.26863 2.2 3.6V4.37931C3.52594 2.34558 5.82151 1 8.43229 1C12.5381 1 15.8667 4.32793 15.8667 8.43333C15.8667 12.5387 12.5381 15.8667 8.43229 15.8667C4.38853 15.8667 1.09883 12.6387 1.00018 8.61889C0.992055 8.28762 1.25401 8.01248 1.58528 8.00435C1.91655 7.99622 2.19169 8.25817 2.19982 8.58945C2.28253 11.9596 5.04124 14.6667 8.43229 14.6667C11.8755 14.6667 14.6667 11.8758 14.6667 8.43333C14.6667 4.99084 11.8755 2.2 8.43229 2.2Z" fill="#333333"/>
<path d="M8.86667 5.26667C8.86667 4.9353 8.59804 4.66667 8.26667 4.66667C7.9353 4.66667 7.66667 4.9353 7.66667 5.26667V8.93333C7.66667 9.14865 7.78204 9.34745 7.96898 9.45428L10.3023 10.7876C10.59 10.952 10.9565 10.8521 11.1209 10.5644C11.2854 10.2766 11.1854 9.91013 10.8977 9.74572L8.86667 8.58514V5.26667Z" fill="#333333"/>
</svg>
