<svg width="128" height="32" viewBox="0 0 128 32" fill="none" xmlns="http://www.w3.org/2000/svg">
<path d="M28.7848 3.99267C27.3574 1.52397 24.7198 0 21.8683 0H12.6176C9.76274 0 7.1251 1.52397 5.70111 3.99267L1.07057 12.0056C-0.356858 14.4778 -0.356858 17.5223 1.07057 19.9944L5.69766 28.0073C7.1251 30.4795 9.76274 32 12.6142 32H21.8649C24.7198 32 27.3574 30.476 28.7814 28.0073L33.4085 19.9944C34.8359 17.5223 34.8359 14.4778 33.4085 12.0056L28.7814 3.99267H28.7848ZM31.0984 23.1734C31.0984 23.6837 30.826 24.156 30.3847 24.4077L17.955 31.5828C17.5136 31.838 16.9689 31.838 16.5275 31.5828L4.09784 24.4112C3.6565 24.156 3.38412 23.6837 3.38412 23.1768V8.82319C3.38412 8.3129 3.6565 7.84053 4.09784 7.58884L16.5275 0.410301C16.9689 0.155156 17.5136 0.155156 17.955 0.410301L30.3847 7.58539C30.826 7.84054 31.0984 8.3129 31.0984 8.81974V23.1734Z" fill="white"/>
<path fill-rule="evenodd" clip-rule="evenodd" d="M58.759 8.60986H54.6376L48.568 15.6918V8.60986H45.479V23.4591H48.568V19.5754L51.0408 16.9047L55.0956 23.4591H59.1004L53.1473 14.6659L58.759 8.60986ZM69.8622 20.6056V15.3513C69.8622 12.8383 68.0304 11.6961 64.4835 11.6961C61.3946 11.6961 59.3339 13.0668 59.3339 15.4634H62.3104C62.3104 14.6659 62.6518 13.7521 64.6001 13.7521C66.3153 13.7521 66.8898 14.4375 66.8898 15.235C66.8898 15.804 66.6608 16.3772 64.3711 16.3772C60.5953 16.3772 59.1049 17.8642 59.1049 20.1446C59.1049 22.0843 60.2497 23.7998 62.9973 23.7998C65.7449 23.7998 66.8898 21.7437 66.8898 21.7437V21.86C66.8898 23.2307 67.2311 23.4592 67.2311 23.4592H70.4367V23.347C70.4367 23.347 69.8622 22.8901 69.8622 20.6056ZM66.8856 18.5496C66.8856 20.7178 65.2828 21.6316 63.909 21.6316C62.6518 21.6316 61.9649 21.0625 61.9649 19.9161C61.9649 19.0023 62.6518 18.317 64.138 18.317C66.0746 18.317 66.8036 17.6187 66.8796 17.5459C66.8825 17.5431 66.8856 17.5402 66.8856 17.5402V18.5496ZM74.3242 13.9806C74.3242 13.9806 75.469 11.6961 78.2166 11.6961C80.9642 11.6961 83.3663 13.6483 83.3663 17.7562C83.3663 21.8642 80.9642 23.8081 78.2166 23.8081C75.469 23.8081 74.3242 21.752 74.3242 21.752V26.8901H71.3476V12.0408H74.3242V13.9806ZM74.3242 17.7521C74.3242 20.6056 75.8145 21.7479 77.3007 21.7479C78.7911 21.7479 80.2773 20.6056 80.2773 17.7521C80.2773 14.8985 78.7911 13.7563 77.3007 13.7563C75.8104 13.7563 74.3242 14.8985 74.3242 17.7521ZM90.007 16.3772C87.7173 16.3772 87.376 15.6919 87.376 15.1228C87.376 14.5538 87.9505 13.7521 89.5491 13.7521C91.2642 13.7521 91.8387 14.5496 91.8387 15.4634H94.8153C94.8153 14.209 94.245 11.6961 89.6656 11.6961C86.1187 11.6961 84.3994 13.2952 84.3994 15.235C84.3994 17.291 85.7732 18.4333 89.3201 18.4333C91.7222 18.4333 92.1801 19.1186 92.1801 19.9161C92.1801 20.7136 91.7222 21.7437 89.778 21.7437C88.2918 21.7437 87.2594 21.0584 87.2594 19.6877H84.1705C84.1705 21.7437 85.5442 23.7998 89.778 23.7998C93.5539 23.7998 95.2732 21.9722 95.2732 19.804C95.2732 17.1747 93.3291 16.3772 90.007 16.3772ZM97.908 8.60987H100.885V12.0366H103.403V14.3211H100.885V20.1445C100.885 21.1704 101.23 21.3989 102.029 21.3989C102.487 21.3989 103.403 21.2826 103.403 21.2826V23.4549C103.403 23.4549 101.913 23.6834 100.885 23.6834C98.4783 23.6834 97.908 22.8859 97.908 20.1445V14.3211H95.6183V12.0366H97.908V8.60987ZM115.077 20.6056V15.3513C115.077 12.8383 113.245 11.6961 109.698 11.6961C106.609 11.6961 104.548 13.0668 104.548 15.4634H107.525C107.525 14.6659 107.866 13.7521 109.814 13.7521C111.53 13.7521 112.104 14.4375 112.104 15.235C112.104 15.804 111.875 16.3772 109.585 16.3772C105.81 16.3772 104.319 17.8642 104.319 20.1446C104.319 22.0843 105.464 23.7998 108.212 23.7998C110.959 23.7998 112.104 21.7437 112.104 21.7437V21.86C112.104 23.2307 112.446 23.4592 112.446 23.4592H115.651V23.347C115.651 23.347 115.081 22.8901 115.081 20.6056H115.077ZM112.1 18.5496C112.1 20.7178 110.497 21.6316 109.123 21.6316C107.866 21.6316 107.179 21.0625 107.179 19.9161C107.179 19.0023 107.866 18.317 109.352 18.317C111.289 18.317 112.018 17.6186 112.094 17.5459C112.097 17.5431 112.1 17.5402 112.1 17.5402V18.5496ZM119.544 14.2091C119.544 14.2091 121.146 11.6961 123.665 11.6961C126.413 11.6961 127.553 13.4033 127.553 15.9162V23.455H124.577V16.7179C124.577 14.7781 123.777 14.0928 122.404 14.0928C121.03 14.0928 119.544 15.1229 119.544 17.748V23.4592H116.567V12.0367H119.544V14.2091Z" fill="white"/>
</svg>
