<svg width="16" height="16" viewBox="0 0 16 16" fill="none" xmlns="http://www.w3.org/2000/svg">
<path fill-rule="evenodd" clip-rule="evenodd" d="M9.1988 8.3736L9.1967 8.37164C9.14014 8.31887 9.09773 8.25844 9.06967 8.19508C9.04166 8.13184 9.02791 8.06568 9.02791 8.00001C9.02791 7.93435 9.04166 7.86819 9.06967 7.80494C9.09772 7.74162 9.14009 7.68123 9.19661 7.62847L13.1665 3.89406L13.174 3.88683C13.2905 3.77422 13.4584 3.70249 13.6434 3.70008C13.8284 3.69766 13.9991 3.765 14.1196 3.87524C14.2388 3.98428 14.2979 4.12382 14.2999 4.25986C14.3019 4.39319 14.2491 4.53075 14.1384 4.64106L14.1356 4.64385L10.4898 8.00001L14.1384 11.3589C14.1924 11.4127 14.2329 11.4736 14.2598 11.5371C14.2877 11.603 14.3009 11.6719 14.2999 11.7402C14.2989 11.8085 14.2836 11.8772 14.2536 11.9427C14.2236 12.0083 14.1788 12.0706 14.1196 12.1248C14.0603 12.179 13.9879 12.2238 13.9056 12.2546C13.8233 12.2854 13.7341 12.3011 13.6434 12.3C13.5527 12.2988 13.4641 12.2808 13.3831 12.2479C13.3022 12.2152 13.2318 12.1688 13.1746 12.1136L9.1988 8.3736ZM5.47195 10.1495H5.51924L3.22433 8.00001L6.80634 4.64506L6.80819 4.64328C6.92044 4.5326 6.97393 4.3941 6.97195 4.25986C6.96994 4.12382 6.91082 3.98428 6.79164 3.87524C6.67115 3.765 6.50044 3.69766 6.31546 3.70008C6.1305 3.70249 5.9625 3.77422 5.84608 3.88683L5.8391 3.89359L5.8381 3.89454L1.86876 7.62838C1.81222 7.68114 1.76977 7.74161 1.74172 7.80494C1.71371 7.86819 1.69995 7.93435 1.69995 8.00001C1.69995 8.06567 1.71371 8.13183 1.74172 8.19508C1.76978 8.25844 1.81219 8.31887 1.86875 8.37164L1.87085 8.3736L5.83905 12.1065C5.95398 12.2146 6.11856 12.2823 6.29856 12.2823C6.47856 12.2823 6.64315 12.2146 6.75808 12.1065C6.8717 11.9996 6.92671 11.8642 6.92671 11.7329C6.92671 11.6016 6.8717 11.4662 6.75808 11.3593L5.47195 10.1495Z" fill="#F3ECFE"/>
</svg>
