<svg width="16" height="16" viewBox="0 0 16 16" fill="none" xmlns="http://www.w3.org/2000/svg">
<g id="Delete / Lines">
<g id="Vector">
<path fill-rule="evenodd" clip-rule="evenodd" d="M5.71077 0.79836C6.11023 0.416145 6.65384 0.199951 7.22242 0.199951H8.77797C9.34655 0.199951 9.89016 0.416145 10.2896 0.79836C10.6888 1.18029 10.9113 1.69636 10.9113 2.23251V3.1767H14.2224C14.3784 3.1767 14.5264 3.23608 14.6341 3.33917C14.7416 3.44198 14.8002 3.57948 14.8002 3.72088C14.8002 3.86228 14.7416 3.99978 14.6341 4.10259C14.5264 4.20568 14.3784 4.26507 14.2224 4.26507H13.2446V13.7674C13.2446 14.3035 13.0221 14.8196 12.623 15.2015C12.2235 15.5838 11.6799 15.8 11.1113 15.8H4.88908C4.32051 15.8 3.7769 15.5838 3.37743 15.2015C2.97826 14.8196 2.75575 14.3035 2.75575 13.7674V4.26507H1.77797C1.62195 4.26507 1.47401 4.20568 1.36627 4.10259C1.25881 3.99978 1.2002 3.86228 1.2002 3.72088C1.2002 3.57948 1.25881 3.44198 1.36627 3.33917C1.47401 3.23608 1.62195 3.1767 1.77797 3.1767H5.08908V2.23251C5.08908 1.69636 5.3116 1.18029 5.71077 0.79836ZM7.22242 1.28832C6.96587 1.28832 6.71815 1.38575 6.53418 1.56178C6.3499 1.73811 6.24464 1.97918 6.24464 2.23251V3.1767H9.75575V2.23251C9.75575 1.97918 9.65049 1.73811 9.46621 1.56178C9.28224 1.38575 9.03452 1.28832 8.77797 1.28832H7.22242ZM12.0891 4.26507H3.91131V13.7674C3.91131 14.0207 4.01656 14.2618 4.20085 14.4381C4.38482 14.6142 4.63254 14.7116 4.88908 14.7116H11.1113C11.3679 14.7116 11.6156 14.6142 11.7995 14.4381C11.9838 14.2618 12.0891 14.0207 12.0891 13.7674V4.26507Z" fill="#333333"/>
<path d="M6.2168 7.3333C6.2168 7.08477 6.41827 6.8833 6.6668 6.8833C6.91532 6.8833 7.1168 7.08477 7.1168 7.3333V11.3333C7.1168 11.5818 6.91532 11.7833 6.6668 11.7833C6.41827 11.7833 6.2168 11.5818 6.2168 11.3333V7.3333Z" fill="#333333"/>
<path d="M8.88347 7.3333C8.88347 7.08477 9.08494 6.8833 9.33347 6.8833C9.582 6.8833 9.78347 7.08477 9.78347 7.3333V11.3333C9.78347 11.5818 9.582 11.7833 9.33347 11.7833C9.08494 11.7833 8.88347 11.5818 8.88347 11.3333V7.3333Z" fill="#333333"/>
</g>
</g>
</svg>
