<svg width="16" height="16" viewBox="0 0 16 16" fill="none" xmlns="http://www.w3.org/2000/svg">
<path fill-rule="evenodd" clip-rule="evenodd" d="M8.56322 1.88178C9.30505 1.16529 10.2986 0.768836 11.3299 0.777798C12.3612 0.786759 13.3478 1.20042 14.077 1.9297C14.8063 2.65897 15.22 3.6455 15.2289 4.6768C15.2379 5.70811 14.8414 6.70168 14.125 7.44352L14.1183 7.45039L12.1177 9.45088C11.719 9.84973 11.2391 10.1583 10.7106 10.3554C10.1822 10.5525 9.61753 10.6337 9.05495 10.5934C8.49237 10.5531 7.94504 10.3923 7.45007 10.1219C6.95511 9.85143 6.52409 9.47772 6.18625 9.02608C5.98777 8.76073 6.04197 8.38471 6.30732 8.18623C6.57267 7.98775 6.94869 8.04195 7.14717 8.3073C7.38194 8.62116 7.68146 8.88085 8.02542 9.06877C8.36938 9.25669 8.74973 9.36844 9.14067 9.39644C9.53162 9.42444 9.92401 9.36804 10.2912 9.23105C10.6585 9.09406 10.9919 8.8797 11.269 8.6025L13.2649 6.60663C13.7606 6.0915 14.0352 5.40224 14.029 4.68723C14.0228 3.97056 13.7353 3.28501 13.2285 2.77822C12.7217 2.27144 12.0362 1.98398 11.3195 1.97775C10.6042 1.97154 9.91506 2.24596 9.39987 2.74203L8.2564 3.87885C8.02141 4.11248 7.64151 4.11138 7.40788 3.87638C7.17425 3.64138 7.17536 3.26149 7.41035 3.02785L8.56322 1.88178ZM5.2895 5.64466C5.81795 5.44754 6.38261 5.36636 6.94519 5.40666C7.50777 5.44695 8.0551 5.60776 8.55007 5.87818C9.04503 6.1486 9.47605 6.52231 9.81389 6.97396C10.0124 7.23931 9.95817 7.61532 9.69282 7.8138C9.42747 8.01229 9.05145 7.95808 8.85297 7.69273C8.6182 7.37888 8.31868 7.11918 7.97472 6.93126C7.63076 6.74334 7.25041 6.63159 6.85947 6.60359C6.46852 6.57559 6.07613 6.632 5.7089 6.76899C5.34167 6.90597 5.0082 7.12033 4.7311 7.39753L2.73523 9.39339C2.2395 9.90852 1.96495 10.5978 1.97116 11.3128C1.97739 12.0295 2.26485 12.715 2.77163 13.2218C3.27841 13.7286 3.96397 14.0161 4.68064 14.0223C5.39565 14.0285 6.08456 13.7543 6.59969 13.2586L7.73583 12.1224C7.97015 11.8881 8.35004 11.8881 8.58436 12.1224C8.81867 12.3567 8.81867 12.7366 8.58436 12.9709L7.4376 14.1177C6.69576 14.8342 5.70152 15.2312 4.67021 15.2222C3.6389 15.2133 2.65238 14.7996 1.9231 14.0703C1.19383 13.3411 0.780168 12.3545 0.771206 11.3232C0.762244 10.2919 1.1587 9.29835 1.87519 8.55652L1.88183 8.54964L3.88242 6.54916C4.28116 6.1503 4.76108 5.84178 5.2895 5.64466Z" fill="#F3ECFE"/>
</svg>
