<svg width="16" height="16" viewBox="0 0 16 16" fill="none" xmlns="http://www.w3.org/2000/svg">
<path d="M8.63328 15V13.2H9.66662C10.5002 13.2 11.2981 12.882 11.8851 12.3185C12.4719 11.7552 12.8 10.993 12.8 10.2C12.8 9.40705 12.4719 8.64484 11.8851 8.08154C11.2981 7.51797 10.5002 7.2 9.66662 7.2H6.33328C5.84078 7.2 5.3669 7.01225 5.01627 6.67565C4.66535 6.33877 4.46662 5.88008 4.46662 5.4C4.46662 4.91992 4.66535 4.46123 5.01627 4.12435C5.3669 3.78774 5.84078 3.6 6.33328 3.6H10.5C10.7714 3.6 11.0334 3.70346 11.2277 3.89004C11.4224 4.07689 11.5333 4.3321 11.5333 4.6C11.5333 4.75641 11.5979 4.90818 11.7159 5.02141C11.8341 5.13487 11.9961 5.2 12.1666 5.2C12.3372 5.2 12.4992 5.13487 12.6174 5.02141C12.7353 4.90818 12.8 4.75641 12.8 4.6C12.8 4.01923 12.5597 3.46049 12.1292 3.04722C11.6984 2.63369 11.1125 2.4 10.5 2.4H8.63328V0.6C8.63328 0.443591 8.56865 0.29182 8.4507 0.178592C8.33251 0.0651278 8.17051 0 7.99995 0C7.82939 0 7.66739 0.0651278 7.5492 0.178592C7.43126 0.29182 7.36662 0.443591 7.36662 0.6V2.4H6.33328C5.49969 2.4 4.70181 2.71797 4.11477 3.28154C3.528 3.84484 3.19995 4.60705 3.19995 5.4C3.19995 6.19295 3.528 6.95516 4.11477 7.51846C4.70181 8.08203 5.49969 8.4 6.33328 8.4H9.66662C10.1591 8.4 10.633 8.58774 10.9836 8.92435C11.3346 9.26123 11.5333 9.71992 11.5333 10.2C11.5333 10.6801 11.3346 11.1388 10.9836 11.4756C10.633 11.8123 10.1591 12 9.66662 12H5.49995C5.22846 12 4.96654 11.8965 4.77219 11.71C4.57755 11.5231 4.46662 11.2679 4.46662 11C4.46662 10.8436 4.40198 10.6918 4.28403 10.5786C4.16584 10.4651 4.00385 10.4 3.83328 10.4C3.66272 10.4 3.50073 10.4651 3.38254 10.5786C3.26459 10.6918 3.19995 10.8436 3.19995 11C3.19995 11.5808 3.4402 12.1395 3.87069 12.5528C4.30145 12.9663 4.88737 13.2 5.49995 13.2H7.36662V15C7.36662 15.1564 7.43126 15.3082 7.5492 15.4214C7.66739 15.5349 7.82939 15.6 7.99995 15.6C8.17052 15.6 8.33251 15.5349 8.4507 15.4214C8.56865 15.3082 8.63328 15.1564 8.63328 15Z" fill="#F3ECFE"/>
</svg>
