<svg width="16" height="16" viewBox="0 0 16 16" fill="none" xmlns="http://www.w3.org/2000/svg">
<path fill-rule="evenodd" clip-rule="evenodd" d="M2.33328 1.45001C1.29315 1.45001 0.449951 2.29321 0.449951 3.33335V10C0.449951 11.0401 1.29315 11.8833 2.33328 11.8833H7.11661V13.45H4.99995C4.69619 13.45 4.44995 13.6963 4.44995 14C4.44995 14.3038 4.69619 14.55 4.99995 14.55H7.6635L7.66661 14.55L7.66971 14.55H10.3333C10.637 14.55 10.8833 14.3038 10.8833 14C10.8833 13.6963 10.637 13.45 10.3333 13.45H8.21661V11.8833H13C14.0401 11.8833 14.8833 11.0401 14.8833 10V3.33335C14.8833 2.29321 14.0401 1.45001 13 1.45001H2.33328ZM1.54995 3.33335C1.54995 2.90072 1.90066 2.55001 2.33328 2.55001H13C13.4326 2.55001 13.7833 2.90072 13.7833 3.33335V10C13.7833 10.4326 13.4326 10.7833 13 10.7833H2.33328C1.90066 10.7833 1.54995 10.4326 1.54995 10V3.33335Z" fill="#333333"/>
</svg>
