<svg width="36" height="32" viewBox="0 0 36 32" fill="none" xmlns="http://www.w3.org/2000/svg">
<path d="M29.5451 3.99267C28.1177 1.52397 25.48 0 22.6286 0H13.3779C10.523 0 7.88535 1.52397 6.46136 3.99267L1.83083 12.0056C0.403396 14.4778 0.403396 17.5223 1.83083 19.9944L6.45792 28.0073C7.88535 30.4795 10.523 32 13.3744 32H22.6251C25.48 32 28.1177 30.476 29.5416 28.0073L34.1687 19.9944C35.5962 17.5223 35.5962 14.4778 34.1687 12.0056L29.5416 3.99267H29.5451ZM31.8586 23.1734C31.8586 23.6837 31.5862 24.156 31.1449 24.4077L18.7152 31.5828C18.2739 31.838 17.7291 31.838 17.2878 31.5828L4.85809 24.4112C4.41676 24.156 4.14437 23.6837 4.14437 23.1768V8.82319C4.14437 8.3129 4.41676 7.84053 4.85809 7.58884L17.2878 0.410301C17.7291 0.155156 18.2739 0.155156 18.7152 0.410301L31.1449 7.58539C31.5862 7.84054 31.8586 8.3129 31.8586 8.81974V23.1734Z" fill="white"/>
</svg>
