<svg width="16" height="16" viewBox="0 0 16 16" fill="none" xmlns="http://www.w3.org/2000/svg">
<path fill-rule="evenodd" clip-rule="evenodd" d="M6.8011 7.62643L6.8032 7.62838C6.85976 7.68116 6.90217 7.74159 6.93023 7.80495C6.95824 7.86819 6.972 7.93435 6.972 8.00001C6.972 8.06568 6.95824 8.13184 6.93023 8.19508C6.90219 8.2584 6.85981 8.3188 6.8033 8.37155L2.83336 12.106L2.82588 12.1132C2.70945 12.2258 2.54145 12.2975 2.3565 12.3C2.17152 12.3024 2.0008 12.235 1.88031 12.1248C1.76113 12.0157 1.70201 11.8762 1.70001 11.7402C1.69804 11.6068 1.75079 11.4693 1.86152 11.359L1.86432 11.3562L5.51006 8.00001L1.86146 4.64111C1.80745 4.58729 1.76698 4.52645 1.74011 4.46294C1.71222 4.39703 1.699 4.32817 1.7 4.25986C1.70101 4.19154 1.71627 4.12285 1.74626 4.05735C1.77629 3.99173 1.82109 3.92943 1.88031 3.87524C1.93961 3.82098 2.01199 3.7762 2.09426 3.7454C2.17657 3.71458 2.26581 3.69889 2.3565 3.70007C2.44718 3.70126 2.53576 3.71927 2.61684 3.75211C2.69772 3.78487 2.76814 3.83122 2.82533 3.88641L6.8011 7.62643ZM10.528 5.85057H10.4807L12.7756 8.00001L9.19357 11.355L9.19172 11.3567C9.07947 11.4674 9.02597 11.6059 9.02796 11.7402C9.02997 11.8762 9.08909 12.0157 9.20826 12.1248C9.32875 12.235 9.49947 12.3024 9.68445 12.3C9.86941 12.2975 10.0374 12.2258 10.1538 12.1132L10.1608 12.1064L10.1618 12.1055L14.1311 8.37165C14.1877 8.31889 14.2301 8.25841 14.2582 8.19508C14.2862 8.13183 14.3 8.06567 14.3 8.00001C14.3 7.93435 14.2862 7.86819 14.2582 7.80495C14.2301 7.74159 14.1877 7.68116 14.1312 7.62838L14.1291 7.62643L10.1609 3.89353C10.0459 3.78542 9.88134 3.71773 9.70134 3.71773C9.52134 3.71773 9.35676 3.78542 9.24183 3.89353C9.1282 4.00041 9.07319 4.13583 9.07319 4.26712C9.07319 4.39842 9.1282 4.53383 9.24183 4.64071L10.528 5.85057Z" fill="#F3ECFE"/>
</svg>
