<svg width="16" height="16" viewBox="0 0 16 16" fill="none" xmlns="http://www.w3.org/2000/svg">
<path fill-rule="evenodd" clip-rule="evenodd" d="M8.24823 15.1575L8.25244 15.1554L8.26583 15.1485C8.27753 15.1425 8.29436 15.1338 8.31559 15.1227C8.35803 15.1004 8.41891 15.0679 8.49557 15.0255C8.64883 14.9406 8.86564 14.8159 9.12486 14.6539C9.64217 14.3306 10.3342 13.8551 11.0289 13.2472C12.395 12.0518 13.8834 10.2456 13.8834 7.99999V3.33333C13.8834 3.10406 13.7411 2.89884 13.5265 2.81834L8.19315 0.818344C8.06864 0.771652 7.93143 0.771652 7.80691 0.818344L2.47358 2.81834C2.25891 2.89884 2.1167 3.10406 2.1167 3.33333V7.99999C2.1167 10.2456 3.60502 12.0518 4.97119 13.2472C5.66584 13.8551 6.3579 14.3306 6.8752 14.6539C7.13442 14.8159 7.35123 14.9406 7.50449 15.0255C7.58116 15.0679 7.64203 15.1004 7.68448 15.1227L7.70981 15.1359L7.73424 15.1485L7.74798 15.1555L7.75198 15.1575L7.75377 15.1584L7.75791 15.1605C7.91069 15.2353 8.09035 15.2349 8.24289 15.1601L8.24689 15.1581L8.24823 15.1575ZM8.05694 14.7804L8.20199 15.0688L8.00003 14.6667L8.05694 14.7804ZM7.4582 13.7211C7.67819 13.8586 7.86402 13.9664 8.00003 14.0424C8.13605 13.9664 8.32188 13.8586 8.54187 13.7211C9.02456 13.4194 9.66584 12.9783 10.3045 12.4194C11.605 11.2815 12.7834 9.75447 12.7834 7.99999V3.71448L8.00003 1.92073L3.2167 3.71448V7.99999C3.2167 9.75447 4.3951 11.2815 5.69554 12.4194C6.33422 12.9783 6.9755 13.4194 7.4582 13.7211Z" fill="#F3ECFE"/>
</svg>
