<svg width="16" height="16" viewBox="0 0 16 16" fill="none" xmlns="http://www.w3.org/2000/svg">
<g clip-path="url(#clip0_142_31723)">
<path fill-rule="evenodd" clip-rule="evenodd" d="M3.55544 1.34824C4.87103 0.469192 6.41775 0 8 0C9.05058 0 10.0909 0.206926 11.0615 0.608964C12.0321 1.011 12.914 1.60028 13.6569 2.34315C14.3997 3.08601 14.989 3.96793 15.391 4.93853C15.7931 5.90914 16 6.94942 16 8C16 9.58225 15.5308 11.129 14.6518 12.4446C13.7727 13.7602 12.5233 14.7855 11.0615 15.391C9.59966 15.9965 7.99113 16.155 6.43928 15.8463C4.88743 15.5376 3.46197 14.7757 2.34315 13.6568C1.22433 12.538 0.462403 11.1126 0.153721 9.56072C-0.15496 8.00887 0.00346625 6.40034 0.608967 4.93853C1.21447 3.47672 2.23985 2.22729 3.55544 1.34824ZM4.13781 7.65C4.07984 7.57451 4.00851 7.51319 3.92828 7.4699C3.84805 7.42661 3.76067 7.40228 3.67161 7.39845C3.58256 7.39461 3.49375 7.41135 3.41077 7.44761C3.32778 7.48386 3.25242 7.53886 3.1894 7.60915C3.12638 7.67943 3.07707 7.76349 3.04456 7.85604C3.01205 7.94859 2.99704 8.04764 3.00048 8.14696C3.00392 8.24629 3.02573 8.34375 3.06455 8.43322C3.10336 8.5227 3.15834 8.60227 3.22603 8.66692L3.24198 8.68215L6.01745 11.7908C6.07767 11.8572 6.14995 11.9108 6.22832 11.9465C6.3071 11.9823 6.39147 12.0005 6.47657 12C6.64589 11.9992 6.80898 11.9244 6.92936 11.7916L12.8087 5.23431C12.8693 5.16727 12.9174 5.0875 12.9503 4.99962C12.9831 4.91173 13 4.81746 13 4.72225C13 4.62704 12.9831 4.53278 12.9503 4.44489C12.9174 4.35701 12.8693 4.27724 12.8087 4.21019C12.6876 4.07586 12.5232 4 12.3524 4C12.1819 4 12.0183 4.0751 11.8972 4.20894L6.48007 10.2648L4.13781 7.65Z" fill="#00B88C"/>
</g>
<defs>
<clipPath id="clip0_142_31723">
<rect width="16" height="16" fill="white"/>
</clipPath>
</defs>
</svg>
