<svg width="16" height="16" viewBox="0 0 16 16" fill="none" xmlns="http://www.w3.org/2000/svg">
<path fill-rule="evenodd" clip-rule="evenodd" d="M8.51116 2.3972C8.28415 2.01292 7.71567 2.01292 7.48866 2.39719L1.31246 12.852C1.08766 13.2326 1.366 13.7149 1.82372 13.7149H14.1761C14.6338 13.7149 14.9122 13.2326 14.6874 12.852L8.51116 2.3972ZM6.42417 1.79036C7.12548 0.603204 8.87434 0.603205 9.57565 1.79036L15.7518 12.2452C16.4565 13.4381 15.575 14.9239 14.1761 14.9239H1.82372C0.424778 14.9239 -0.456704 13.4381 0.247977 12.2452L6.42417 1.79036ZM8.78747 11.4536C8.78747 11.8825 8.43287 12.2267 7.99989 12.2267C7.56692 12.2267 7.21232 11.8825 7.21232 11.4536C7.21232 11.0247 7.56692 10.6805 7.99989 10.6805C8.43287 10.6805 8.78747 11.0247 8.78747 11.4536ZM7.99989 5.28601C8.33776 5.28601 8.61526 5.55468 8.61526 5.8905V8.92492C8.61526 9.26075 8.33776 9.52942 7.99989 9.52942C7.66202 9.52942 7.38452 9.26075 7.38452 8.92492V5.8905C7.38452 5.55468 7.66202 5.28601 7.99989 5.28601Z" fill="#333333"/>
</svg>
