<svg width="16" height="16" viewBox="0 0 16 16" fill="none" xmlns="http://www.w3.org/2000/svg">
<g id="Arrow / With base / Up ">
<g id="Vector">
<path fill-rule="evenodd" clip-rule="evenodd" d="M3.91264 13.1918L12.1417 13.1918C12.4891 13.1918 12.7708 13.4735 12.7708 13.8209C12.7708 14.1684 12.4891 14.45 12.1417 14.45H3.91264C3.5652 14.45 3.28354 14.1684 3.28354 13.8209C3.28354 13.4735 3.5652 13.1918 3.91264 13.1918Z" fill="#6E27D5"/>
<path d="M7.6306 2.00362C7.73659 1.90005 7.87892 1.84204 8.02714 1.84204C8.17552 1.84204 8.31831 1.90066 8.42419 2.00412L12.7485 6.32823C12.8083 6.37868 12.8569 6.44093 12.8915 6.51108C12.926 6.58122 12.9456 6.65774 12.9492 6.73584C12.9528 6.81393 12.9401 6.89192 12.9121 6.96492C12.8841 7.0379 12.8413 7.10432 12.7865 7.15999C12.7316 7.21566 12.6658 7.25939 12.5932 7.28843C12.5206 7.31747 12.4428 7.33119 12.3646 7.32874C12.2865 7.32629 12.2097 7.30772 12.1391 7.27419C12.0692 7.24102 12.0075 7.19386 11.9569 7.13637L8.5945 3.76764V11.7762C8.5945 11.9267 8.53473 12.071 8.42833 12.1774C8.32193 12.2838 8.17762 12.3436 8.02714 12.3436C7.87667 12.3436 7.73236 12.2838 7.62596 12.1774C7.51956 12.071 7.45978 11.9267 7.45978 11.7762V3.77395L4.10004 7.13389C4.04875 7.19289 3.98582 7.24066 3.91519 7.27419C3.84457 7.30772 3.76778 7.32629 3.68964 7.32874C3.6115 7.33119 3.53369 7.31747 3.46111 7.28843C3.38852 7.25939 3.32272 7.21566 3.26783 7.15999C3.21295 7.10432 3.17016 7.0379 3.14215 6.96491C3.11414 6.89192 3.10152 6.81393 3.10508 6.73583C3.10864 6.65773 3.1283 6.58122 3.16283 6.51108C3.19694 6.44178 3.24493 6.38106 3.30273 6.33149L7.6306 2.00362Z" fill="#6E27D5"/>
</g>
</g>
</svg>
