<svg width="16" height="16" viewBox="0 0 16 16" fill="none" xmlns="http://www.w3.org/2000/svg">
<path fill-rule="evenodd" clip-rule="evenodd" d="M10.5291 8.60386L10.5 8.5L10.4893 8.33189C11.0866 7.83662 11.5233 7.17381 11.7422 6.42779C11.9705 5.64976 11.9506 4.8199 11.6853 4.05368C11.4201 3.28746 10.9225 2.62298 10.262 2.15269C9.6015 1.68239 8.81082 1.42966 7.99997 1.42966C7.18913 1.42966 6.39845 1.68239 5.73793 2.15269C5.07741 2.62298 4.5799 3.28746 4.31461 4.05368C4.04933 4.8199 4.02946 5.64976 4.25777 6.42779C4.48608 7.20583 4.95122 7.89336 5.58847 8.39473L5.72452 8.50177L5.56383 8.56615C4.46068 9.00811 3.49815 9.74115 2.77884 10.6871C2.05956 11.6331 1.61045 12.7565 1.47937 13.9376C1.47118 14.0121 1.47774 14.0875 1.49868 14.1594C1.51961 14.2314 1.55452 14.2985 1.6014 14.357C1.69608 14.4751 1.83379 14.5507 1.98424 14.5673C2.13469 14.5838 2.28555 14.5399 2.40363 14.4452C2.52166 14.3506 2.59728 14.213 2.61388 14.0626C2.76302 12.735 3.39613 11.5084 4.39214 10.618C5.38816 9.72756 6.67732 9.23534 8.01331 9.23534C9.3493 9.23534 10.6385 9.72756 11.6345 10.618C12.6305 11.5084 13.2635 12.7345 13.4127 14.0622C13.4281 14.2013 13.4945 14.3301 13.5992 14.4233C13.7038 14.5164 13.8399 14.5675 13.98 14.5667L14.0408 14.5676L14.0545 14.5657C14.1981 14.5459 14.3288 14.4718 14.4196 14.3584C14.5129 14.2417 14.5563 14.0924 14.5405 13.9439C14.4088 12.7596 13.9573 11.6334 13.2344 10.6861C12.5316 9.76521 11.5981 9.04708 10.5291 8.60386ZM7.99997 8.09999C7.45278 8.09999 6.91787 7.93773 6.4629 7.63372C6.00792 7.32972 5.65331 6.89762 5.44391 6.39208C5.2345 5.88654 5.17972 5.33025 5.28647 4.79357C5.39322 4.25689 5.65672 3.76392 6.04364 3.37699C6.43057 2.99007 6.92354 2.72657 7.46022 2.61982C7.99691 2.51306 8.55319 2.56785 9.05873 2.77725C9.56427 2.98666 9.99637 3.34127 10.3004 3.79624C10.6044 4.25122 10.7666 4.78613 10.7666 5.33332C10.7666 6.06709 10.4752 6.7708 9.9563 7.28965C9.43745 7.8085 8.73374 8.09999 7.99997 8.09999Z" fill="#F3ECFE"/>
</svg>
