<svg width="16" height="16" viewBox="0 0 16 16" fill="none" xmlns="http://www.w3.org/2000/svg">
<path fill-rule="evenodd" clip-rule="evenodd" d="M6.89999 2.35161C6.89999 1.54992 7.54989 0.900024 8.35158 0.900024C9.15327 0.900024 9.80317 1.54992 9.80317 2.35161C9.80317 3.1533 9.15327 3.8032 8.35158 3.8032C7.54989 3.8032 6.89999 3.1533 6.89999 2.35161ZM6.89999 8.00002C6.89999 7.19833 7.54989 6.54843 8.35158 6.54843C9.15327 6.54843 9.80317 7.19833 9.80317 8.00002C9.80317 8.8017 9.15327 9.4516 8.35158 9.4516C7.54989 9.4516 6.89999 8.8017 6.89999 8.00002ZM6.89999 13.6484C6.89999 12.8467 7.54989 12.1969 8.35158 12.1969C9.15327 12.1969 9.80317 12.8467 9.80317 13.6484C9.80317 14.4501 9.15327 15.1 8.35158 15.1C7.54989 15.1 6.89999 14.4501 6.89999 13.6484Z" fill="#333333"/>
</svg>
